{
    "asset" : {
        "generator" : "Khronos glTF Blender I/O v1.6.16",
        "version" : "2.0"
    },
    "scene" : 0,
    "scenes" : [
        {
            "name" : "Scene",
            "nodes" : [
                0
            ]
        }
    ],
    "nodes" : [
        {
            "mesh" : 0,
            "name" : "trial.001",
            "rotation" : [
                0.9999998807907104,
                0,
                0.0005521682323887944,
                -5.064321726422349e-07
            ],
            "scale" : [
                16.371417999267578,
                16.371416091918945,
                16.371417999267578
            ],
            "translation" : [
                -0.9629651308059692,
                16.194759368896484,
                8.956827163696289
            ]
        }
    ],
    "materials" : [
        {
            "doubleSided" : true,
            "emissiveFactor" : [
                1,
                1,
                0.48087569488039605
            ],
            "name" : "Material.002",
            "normalTexture" : {
                "index" : 0
            },
            "pbrMetallicRoughness" : {
                "baseColorFactor" : [
                    0.8000000715255737,
                    0.532116174697876,
                    0.15381364524364471,
                    1
                ],
                "baseColorTexture" : {
                    "index" : 1
                },
                "metallicFactor" : 0.9318181872367859,
                "roughnessFactor" : 0.5
            }
        }
    ],
    "meshes" : [
        {
            "name" : "trial.001",
            "primitives" : [
                {
                    "attributes" : {
                        "POSITION" : 0,
                        "NORMAL" : 1,
                        "TEXCOORD_0" : 2
                    },
                    "indices" : 3,
                    "material" : 0
                }
            ]
        }
    ],
    "textures" : [
        {
            "sampler" : 0,
            "source" : 0
        },
        {
            "sampler" : 1,
            "source" : 1
        }
    ],
    "images" : [
        {
            "bufferView" : 4,
            "mimeType" : "image/jpeg",
            "name" : "brass final"
        },
        {
            "bufferView" : 5,
            "mimeType" : "image/png",
            "name" : "NormalMap (2)"
        }
    ],
    "accessors" : [
        {
            "bufferView" : 0,
            "componentType" : 5126,
            "count" : 40386,
            "max" : [
                2.043860912322998,
                2.0523200035095215,
                0.5066619515419006
            ],
            "min" : [
                -1.9651299715042114,
                -1.9567229747772217,
                0.2918691635131836
            ],
            "type" : "VEC3"
        },
        {
            "bufferView" : 1,
            "componentType" : 5126,
            "count" : 40386,
            "type" : "VEC3"
        },
        {
            "bufferView" : 2,
            "componentType" : 5126,
            "count" : 40386,
            "type" : "VEC2"
        },
        {
            "bufferView" : 3,
            "componentType" : 5123,
            "count" : 40416,
            "type" : "SCALAR"
        }
    ],
    "bufferViews" : [
        {
            "buffer" : 0,
            "byteLength" : 484632,
            "byteOffset" : 0
        },
        {
            "buffer" : 0,
            "byteLength" : 484632,
            "byteOffset" : 484632
        },
        {
            "buffer" : 0,
            "byteLength" : 323088,
            "byteOffset" : 969264
        },
        {
            "buffer" : 0,
            "byteLength" : 80832,
            "byteOffset" : 1292352
        },
        {
            "buffer" : 0,
            "byteLength" : 226510,
            "byteOffset" : 1373184
        },
        {
            "buffer" : 0,
            "byteLength" : 1351143,
            "byteOffset" : 1599696
        }
    ],
    "samplers" : [
        {
            "magFilter" : 9729,
            "minFilter" : 9987,
            "wrapS" : 33071,
            "wrapT" : 33071
        },
        {
            "magFilter" : 9729,
            "minFilter" : 9987
        }
    ],
    "buffers" : [
        {
            "byteLength" : 2950840,
            "uri" : "data:application/octet-stream;base64,"
        }
    ]
}
