{
    "asset" : {
        "generator" : "Khronos glTF Blender I/O v1.6.16",
        "version" : "2.0"
    },
    "scene" : 0,
    "scenes" : [
        {
            "name" : "Scene",
            "nodes" : [
                0
            ]
        }
    ],
    "nodes" : [
        {
            "mesh" : 0,
            "name" : "trial.001",
            "rotation" : [
                0.9999998807907104,
                0,
                0.0005521682323887944,
                -5.064321726422349e-07
            ],
            "scale" : [
                16.371417999267578,
                16.371416091918945,
                16.371417999267578
            ],
            "translation" : [
                -0.9629651308059692,
                16.194759368896484,
                8.956827163696289
            ]
        }
    ],
    "materials" : [
        {
            "doubleSided" : true,
            "emissiveFactor" : [
                0.2028887516265101,
                0.15547469380547696,
                0.07097260480321754
            ],
            "name" : "Material.002",
            "normalTexture" : {
                "index" : 0
            },
            "pbrMetallicRoughness" : {
                "baseColorFactor" : [
                    0.8000000715255737,
                    0.3721068203449249,
                    0.15621869266033173,
                    1
                ],
                "metallicFactor" : 0.9318181872367859,
                "roughnessFactor" : 0
            }
        }
    ],
    "meshes" : [
        {
            "name" : "trial.001",
            "primitives" : [
                {
                    "attributes" : {
                        "POSITION" : 0,
                        "NORMAL" : 1,
                        "TEXCOORD_0" : 2
                    },
                    "indices" : 3,
                    "material" : 0
                }
            ]
        }
    ],
    "textures" : [
        {
            "sampler" : 0,
            "source" : 0
        }
    ],
    "images" : [
        {
            "bufferView" : 4,
            "mimeType" : "image/jpeg",
            "name" : "brass final"
        }
    ],
    "accessors" : [
        {
            "bufferView" : 0,
            "componentType" : 5126,
            "count" : 40416,
            "max" : [
                2.043762445449829,
                2.052321434020996,
                0.7294409871101379
            ],
            "min" : [
                -1.9653708934783936,
                -1.956723928451538,
                0.3720925450325012
            ],
            "type" : "VEC3"
        },
        {
            "bufferView" : 1,
            "componentType" : 5126,
            "count" : 40416,
            "type" : "VEC3"
        },
        {
            "bufferView" : 2,
            "componentType" : 5126,
            "count" : 40416,
            "type" : "VEC2"
        },
        {
            "bufferView" : 3,
            "componentType" : 5123,
            "count" : 40416,
            "type" : "SCALAR"
        }
    ],
    "bufferViews" : [
        {
            "buffer" : 0,
            "byteLength" : 484992,
            "byteOffset" : 0
        },
        {
            "buffer" : 0,
            "byteLength" : 484992,
            "byteOffset" : 484992
        },
        {
            "buffer" : 0,
            "byteLength" : 323328,
            "byteOffset" : 969984
        },
        {
            "buffer" : 0,
            "byteLength" : 80832,
            "byteOffset" : 1293312
        },
        {
            "buffer" : 0,
            "byteLength" : 226510,
            "byteOffset" : 1374144
        }
    ],
    "samplers" : [
        {
            "magFilter" : 9729,
            "minFilter" : 9987,
            "wrapS" : 33071,
            "wrapT" : 33071
        }
    ],
    "buffers" : [
        {
            "byteLength" : 1600656,
            "uri" : "data:application/octet-stream;base64,"
        }
    ]
}
