{
    "asset" : {
        "generator" : "Khronos glTF Blender I/O v1.6.16",
        "version" : "2.0"
    },
    "scene" : 0,
    "scenes" : [
        {
            "name" : "Scene",
            "nodes" : [
                0
            ]
        }
    ],
    "nodes" : [
        {
            "mesh" : 0,
            "name" : "trial.001",
            "rotation" : [
                0.9999998807907104,
                0,
                0.0005521682323887944,
                -5.064321726422349e-07
            ],
            "scale" : [
                16.371421813964844,
                16.371416091918945,
                13.9318265914917
            ],
            "translation" : [
                -0.9629651308059692,
                16.194759368896484,
                8.956827163696289
            ]
        }
    ],
    "materials" : [
        {
            "doubleSided" : true,
            "name" : "Material.002",
            "pbrMetallicRoughness" : {
                "baseColorFactor" : [
                    1,
                    0.4171101152896881,
                    0,
                    1
                ],
                "roughnessFactor" : 0
            }
        }
    ],
    "meshes" : [
        {
            "name" : "trial.001",
            "primitives" : [
                {
                    "attributes" : {
                        "POSITION" : 0,
                        "NORMAL" : 1,
                        "TEXCOORD_0" : 2
                    },
                    "indices" : 3,
                    "material" : 0
                }
            ]
        }
    ],
    "accessors" : [
        {
            "bufferView" : 0,
            "componentType" : 5126,
            "count" : 40416,
            "max" : [
                2.043706178665161,
                2.052320718765259,
                0.672161340713501
            ],
            "min" : [
                -1.9653115272521973,
                -1.9567232131958008,
                0.43014776706695557
            ],
            "type" : "VEC3"
        },
        {
            "bufferView" : 1,
            "componentType" : 5126,
            "count" : 40416,
            "type" : "VEC3"
        },
        {
            "bufferView" : 2,
            "componentType" : 5126,
            "count" : 40416,
            "type" : "VEC2"
        },
        {
            "bufferView" : 3,
            "componentType" : 5123,
            "count" : 40416,
            "type" : "SCALAR"
        }
    ],
    "bufferViews" : [
        {
            "buffer" : 0,
            "byteLength" : 484992,
            "byteOffset" : 0
        },
        {
            "buffer" : 0,
            "byteLength" : 484992,
            "byteOffset" : 484992
        },
        {
            "buffer" : 0,
            "byteLength" : 323328,
            "byteOffset" : 969984
        },
        {
            "buffer" : 0,
            "byteLength" : 80832,
            "byteOffset" : 1293312
        }
    ],
    "buffers" : [
        {
            "byteLength" : 1374144,
            "uri" : "data:application/octet-stream;base64,"
        }
    ]
}
