<svg id="Layer_1" data-name="Layer 1" xmlns="http://www.w3.org/2000/svg" viewBox="0 0 637.93 384.69"><defs><style>.cls-1,.cls-11,.cls-13,.cls-3,.cls-6,.cls-8{fill:none;stroke:#fff;}.cls-10,.cls-11,.cls-12,.cls-13,.cls-2,.cls-3,.cls-4,.cls-5,.cls-6,.cls-7,.cls-8,.cls-9{isolation:isolate;}.cls-2,.cls-3,.cls-5,.cls-6,.cls-7,.cls-8,.cls-9{font-size:11.29px;}.cls-2,.cls-3,.cls-9{font-family:ArialMT, Arial;}.cls-11,.cls-13,.cls-3,.cls-6,.cls-8{stroke-miterlimit:10;}.cls-10,.cls-12,.cls-5,.cls-7,.cls-9{fill:#fff;}.cls-10,.cls-11,.cls-12,.cls-13,.cls-5,.cls-6,.cls-7,.cls-8{font-family:Arial-BoldMT, Arial;font-weight:700;}.cls-7,.cls-8{letter-spacing:0.02em;}.cls-10,.cls-11,.cls-12,.cls-13{font-size:8.31px;}.cls-10,.cls-11{letter-spacing:-0.11em;}</style></defs><line class="cls-1" x1="74.78" y1="350.66" x2="69.14" y2="350.66"/><text class="cls-2" transform="translate(60.04 354.27)">0</text><text class="cls-3" transform="translate(60.04 354.27)">0</text><line class="cls-1" x1="74.78" y1="311.86" x2="69.14" y2="311.86"/><text class="cls-2" transform="translate(16.11 315.47)">1,000,000</text><text class="cls-3" transform="translate(16.11 315.47)">1,000,000</text><line class="cls-1" x1="74.78" y1="273.06" x2="69.14" y2="273.06"/><text class="cls-2" transform="translate(16.11 276.67)">2,000,000</text><text class="cls-3" transform="translate(16.11 276.67)">2,000,000</text><line class="cls-1" x1="74.78" y1="234.25" x2="69.14" y2="234.25"/><text class="cls-2" transform="translate(16.11 237.86)">3,000,000</text><text class="cls-3" transform="translate(16.11 237.86)">3,000,000</text><line class="cls-1" x1="74.78" y1="195.45" x2="69.14" y2="195.45"/><text class="cls-2" transform="translate(16.11 199.06)">4,000,000</text><text class="cls-3" transform="translate(16.11 199.06)">4,000,000</text><line class="cls-1" x1="74.78" y1="156.65" x2="69.14" y2="156.65"/><text class="cls-2" transform="translate(16.11 160.26)">5,000,000</text><text class="cls-3" transform="translate(16.11 160.26)">5,000,000</text><line class="cls-1" x1="74.78" y1="117.85" x2="69.14" y2="117.85"/><text class="cls-2" transform="translate(16.11 121.46)">6,000,000</text><text class="cls-3" transform="translate(16.11 121.46)">6,000,000</text><line class="cls-1" x1="74.78" y1="79.05" x2="69.14" y2="79.05"/><text class="cls-2" transform="translate(16.11 82.66)">7,000,000</text><text class="cls-3" transform="translate(16.11 82.66)">7,000,000</text><line class="cls-1" x1="74.78" y1="40.24" x2="69.14" y2="40.24"/><text class="cls-2" transform="translate(16.11 43.85)">8,000,000</text><text class="cls-3" transform="translate(16.11 43.85)">8,000,000</text><g class="cls-4"><text class="cls-5" transform="translate(16.54 10.19)">Bo</text><text class="cls-6" transform="translate(16.54 10.19)">Bo</text><text class="cls-7" transform="translate(32.85 10.19)">r</text><text class="cls-8" transform="translate(32.85 10.19)">r</text><text class="cls-5" transform="translate(38.04 10.19)">ough</text><text class="cls-6" transform="translate(38.04 10.19)">ough</text></g><line class="cls-1" x1="74.78" y1="350.66" x2="74.78" y2="356.3"/><text class="cls-9" transform="translate(55.96 367.14)">2015</text><text class="cls-3" transform="translate(55.96 367.14)">2015</text><line class="cls-1" x1="129.33" y1="350.66" x2="129.33" y2="356.3"/><line class="cls-1" x1="183.88" y1="350.66" x2="183.88" y2="356.3"/><text class="cls-9" transform="translate(165.06 367.14)">2016</text><text class="cls-3" transform="translate(165.06 367.14)">2016</text><line class="cls-1" x1="238.43" y1="350.66" x2="238.43" y2="356.3"/><line class="cls-1" x1="292.98" y1="350.66" x2="292.98" y2="356.3"/><g class="cls-4"><text class="cls-9" transform="translate(274.16 367.14)"><tspan xml:space="preserve">  2017</tspan></text><text class="cls-3" transform="translate(274.16 367.14)"><tspan xml:space="preserve">  2017</tspan></text></g><line class="cls-1" x1="347.53" y1="350.66" x2="347.53" y2="356.3"/><line class="cls-1" x1="402.08" y1="350.66" x2="402.08" y2="356.3"/><g class="cls-4"><text class="cls-9" transform="translate(383.25 367.14)"><tspan xml:space="preserve">  2018</tspan></text><text class="cls-3" transform="translate(383.25 367.14)"><tspan xml:space="preserve">  2018</tspan></text></g><line class="cls-1" x1="456.63" y1="350.66" x2="456.63" y2="356.3"/><line class="cls-1" x1="511.18" y1="350.66" x2="511.18" y2="356.3"/><g class="cls-4"><text class="cls-9" transform="translate(492.35 367.14)"><tspan xml:space="preserve">  2019</tspan></text><text class="cls-3" transform="translate(492.35 367.14)"><tspan xml:space="preserve">  2019</tspan></text></g><line class="cls-1" x1="565.73" y1="350.66" x2="565.73" y2="356.3"/><line class="cls-1" x1="620.28" y1="350.66" x2="620.28" y2="356.3"/><g class="cls-4"><text class="cls-9" transform="translate(601.45 367.14)"><tspan xml:space="preserve">  2020</tspan></text><text class="cls-3" transform="translate(601.45 367.14)"><tspan xml:space="preserve">  2020</tspan></text></g><g class="cls-4"><text class="cls-10" transform="translate(608.65 381.07)">Y</text><text class="cls-11" transform="translate(608.65 381.07)">Y</text><text class="cls-12" transform="translate(614.33 381.07)">ear →</text><text class="cls-13" transform="translate(614.33 381.07)">ear →</text></g><line class="cls-1" x1="74.78" y1="350.66" x2="620.28" y2="350.66"/><text x="15.61" y="0.01"/></svg>