<svg id="Layer_1" data-name="Layer 1" xmlns="http://www.w3.org/2000/svg" viewBox="0 0 625.09 384.1"><defs><style>.cls-1{fill:none;}.cls-1,.cls-2,.cls-3,.cls-5,.cls-6,.cls-8{stroke:#fff;}.cls-2,.cls-3,.cls-6,.cls-7,.cls-8{isolation:isolate;}.cls-2,.cls-3,.cls-6{font-size:11.29px;}.cls-2,.cls-3,.cls-6,.cls-8{stroke-miterlimit:10;}.cls-2,.cls-6{font-family:ArialMT, Arial;}.cls-3,.cls-5,.cls-6,.cls-8{fill:#fff;}.cls-3,.cls-8{font-family:Arial-Black, Arial Black;font-weight:800;}.cls-4{letter-spacing:0.02em;}.cls-8{font-size:8.31px;letter-spacing:-0.09em;}.cls-9{letter-spacing:0em;}.cls-10{fill:#00abc9;stroke:#94dce1;}.cls-10,.cls-11,.cls-12,.cls-13,.cls-14{stroke-miterlimit:1;stroke-width:1.5px;}.cls-11{fill:#e026a3;stroke:#dd8cba;}.cls-12{fill:#e6b012;stroke:#ddd98e;}.cls-13{fill:#e60d2e;stroke:#dd8984;}.cls-14{fill:#f56600;stroke:#dd9252;}</style></defs><line class="cls-1" x1="59.17" y1="350.65" x2="53.53" y2="350.65"/><text class="cls-2" transform="translate(44.43 354.26)">0</text><line class="cls-1" x1="59.17" y1="311.85" x2="53.53" y2="311.85"/><text class="cls-2" transform="translate(0.5 315.46)">1,000,000</text><line class="cls-1" x1="59.17" y1="273.05" x2="53.53" y2="273.05"/><text class="cls-2" transform="translate(0.5 276.66)">2,000,000</text><line class="cls-1" x1="59.17" y1="234.24" x2="53.53" y2="234.24"/><text class="cls-2" transform="translate(0.5 237.85)">3,000,000</text><line class="cls-1" x1="59.17" y1="195.44" x2="53.53" y2="195.44"/><text class="cls-2" transform="translate(0.5 199.05)">4,000,000</text><line class="cls-1" x1="59.17" y1="156.64" x2="53.53" y2="156.64"/><text class="cls-2" transform="translate(0.5 160.25)">5,000,000</text><line class="cls-1" x1="59.17" y1="117.84" x2="53.53" y2="117.84"/><text class="cls-2" transform="translate(0.5 121.45)">6,000,000</text><line class="cls-1" x1="59.17" y1="79.04" x2="53.53" y2="79.04"/><text class="cls-2" transform="translate(0.5 82.65)">7,000,000</text><line class="cls-1" x1="59.17" y1="40.23" x2="53.53" y2="40.23"/><text class="cls-2" transform="translate(0.5 43.84)">8,000,000</text><text class="cls-3" transform="translate(0.93 10.18)">Bo<tspan class="cls-4" x="16.31" y="0">r</tspan><tspan x="21.5" y="0">ough</tspan></text><line class="cls-5" x1="59.17" y1="350.65" x2="59.17" y2="356.29"/><text class="cls-6" transform="translate(40.35 367.13)">2015</text><line class="cls-5" x1="113.72" y1="350.65" x2="113.72" y2="356.29"/><line class="cls-5" x1="168.27" y1="350.65" x2="168.27" y2="356.29"/><text class="cls-6" transform="translate(149.45 367.13)">2016</text><line class="cls-5" x1="222.82" y1="350.65" x2="222.82" y2="356.29"/><text class="cls-7" x="-9.5" y="-8.64"/><line class="cls-5" x1="277.37" y1="350.65" x2="277.37" y2="356.29"/><text class="cls-6" transform="translate(258.55 367.13)"><tspan xml:space="preserve">  2017</tspan></text><line class="cls-5" x1="331.92" y1="350.65" x2="331.92" y2="356.29"/><text class="cls-7" x="-9.5" y="-8.64"/><line class="cls-5" x1="386.47" y1="350.65" x2="386.47" y2="356.29"/><text class="cls-6" transform="translate(367.64 367.13)"><tspan xml:space="preserve">  2018</tspan></text><line class="cls-5" x1="441.02" y1="350.65" x2="441.02" y2="356.29"/><text class="cls-7" x="-9.5" y="-8.64"/><line class="cls-5" x1="495.57" y1="350.65" x2="495.57" y2="356.29"/><text class="cls-6" transform="translate(476.74 367.13)"><tspan xml:space="preserve">  2019</tspan></text><line class="cls-5" x1="550.12" y1="350.65" x2="550.12" y2="356.29"/><text class="cls-7" x="-9.5" y="-8.64"/><line class="cls-5" x1="604.67" y1="350.65" x2="604.67" y2="356.29"/><text class="cls-6" transform="translate(585.84 367.13)"><tspan xml:space="preserve">  2020</tspan></text><text class="cls-8" transform="translate(593.04 381.06)">Y<tspan class="cls-9" x="5.68" y="0">ear →</tspan></text><path class="cls-10" d="M68.67,155.64l109.1-.09L286.87,158,396,163l109.1-2.05,109.1,125.43" transform="translate(-9.5 -8.64)"/><path class="cls-11" d="M68.67,232l109.1,0,109.1,1.4L396,236.64l109.1-.93,109.1,76.75" transform="translate(-9.5 -8.64)"/><path class="cls-12" d="M68.67,302.19l109.1,0,109.1.68L396,304.41h109.1l109.1,32" transform="translate(-9.5 -8.64)"/><path class="cls-13" d="M68.67,30.41l109.1-.3,109.1,4.37L396,42.8l109.1-3.28,109.1,201" transform="translate(-9.5 -8.64)"/><path class="cls-14" d="M68.67,335.47l109.1,0,109.1.24,109.1.5,109.1,0,109.1,13.69" transform="translate(-9.5 -8.64)"/><line class="cls-5" x1="59.17" y1="350.65" x2="604.67" y2="350.65"/></svg>