<svg id="Layer_1" data-name="Layer 1" xmlns="http://www.w3.org/2000/svg" viewBox="0 0 495.44 186.03"><defs><style>.cls-1{fill:none;stroke:#000;}.cls-2,.cls-4{isolation:isolate;font-size:8.35px;font-family:ArialMT, Arial;}.cls-3{font-size:5px;}.cls-4{letter-spacing:-0.04em;}.cls-5{letter-spacing:0em;}.cls-6{fill:#006c19;}.cls-10,.cls-11,.cls-12,.cls-13,.cls-14,.cls-15,.cls-6,.cls-7,.cls-8,.cls-9{fill-opacity:0.7;stroke-opacity:0.5;}.cls-11,.cls-14,.cls-15,.cls-6,.cls-7,.cls-8,.cls-9{stroke:#fff;}.cls-7{fill:#b933ad;}.cls-8{fill:#ff6319;}.cls-9{fill:#00933c;}.cls-10{fill:#a7a9ac;stroke:#fcffff;}.cls-11{fill:#fccc0a;}.cls-12{fill:#ee352e;stroke:#fffdff;}.cls-13{fill:#0039a6;stroke:#fffffd;}.cls-14{fill:#808183;}.cls-15{fill:#00add0;}</style></defs><line class="cls-1" x1="96.52" y1="19.56" x2="92.35" y2="19.56"/><text class="cls-2" transform="translate(32.82 22.24)">14 St-Union Sq </text><line class="cls-1" x1="96.52" y1="33.49" x2="92.35" y2="33.49"/><text class="cls-2" transform="translate(29.91 36.16)">34 St-Herald Sq </text><line class="cls-1" x1="96.52" y1="47.41" x2="92.35" y2="47.41"/><text class="cls-2" transform="translate(0.35 50.08)">34 St-Penn Station <tspan class="cls-3" x="72.45" y="0">(1,2,3)</tspan></text><line class="cls-1" x1="96.52" y1="61.33" x2="92.35" y2="61.33"/><text class="cls-2" transform="translate(0 64.01)">34 St-Penn Station <tspan class="cls-3" x="72.45" y="0">(A,C,E)</tspan></text><line class="cls-1" x1="96.52" y1="75.26" x2="92.35" y2="75.26"/><text class="cls-2" transform="translate(6 78.03)">59 St-Columbus Circle </text><line class="cls-1" x1="96.52" y1="89.18" x2="92.35" y2="89.18"/><text class="cls-2" transform="translate(39.63 91.85)"><tspan xml:space="preserve">74-Broadway  </tspan></text><line class="cls-1" x1="96.52" y1="103.1" x2="92.35" y2="103.1"/><text class="cls-2" transform="translate(26.3 105.77)">Flushing-Main St </text><line class="cls-1" x1="96.52" y1="117.02" x2="92.35" y2="117.02"/><text class="cls-2" transform="translate(55.28 119.7)">Fulton St </text><line class="cls-1" x1="96.52" y1="130.95" x2="92.35" y2="130.95"/><text class="cls-2" transform="translate(14.2 133.62)">Grand Central-42 St </text><line class="cls-1" x1="96.52" y1="144.87" x2="92.35" y2="144.87"/><text class="cls-4" transform="translate(32.31 147.54)">T<tspan class="cls-5" x="4.79" y="0">imes Sq-42 St </tspan></text><text class="cls-2" transform="translate(65.2 7.17)">Station </text><line class="cls-1" x1="120.19" y1="155.31" x2="120.19" y2="159.49"/><text class="cls-2" transform="translate(117.87 167.51)">1</text><line class="cls-1" x1="159.87" y1="155.31" x2="159.87" y2="159.49"/><text class="cls-2" transform="translate(157.55 167.51)">2</text><line class="cls-1" x1="199.55" y1="155.31" x2="199.55" y2="159.49"/><text class="cls-2" transform="translate(197.23 167.51)">3</text><line class="cls-1" x1="239.23" y1="155.31" x2="239.23" y2="159.49"/><text class="cls-2" transform="translate(236.91 167.51)">4</text><line class="cls-1" x1="278.91" y1="155.31" x2="278.91" y2="159.49"/><text class="cls-2" transform="translate(276.59 167.51)">5</text><line class="cls-1" x1="318.59" y1="155.31" x2="318.59" y2="159.49"/><text class="cls-2" transform="translate(316.27 167.51)">6</text><line class="cls-1" x1="358.27" y1="155.31" x2="358.27" y2="159.49"/><text class="cls-2" transform="translate(355.95 167.51)">7</text><line class="cls-1" x1="397.95" y1="155.31" x2="397.95" y2="159.49"/><text class="cls-2" transform="translate(395.63 167.51)">8</text><line class="cls-1" x1="437.63" y1="155.31" x2="437.63" y2="159.49"/><text class="cls-2" transform="translate(435.31 167.51)">9</text><line class="cls-1" x1="477.31" y1="155.31" x2="477.31" y2="159.49"/><text class="cls-2" transform="translate(472.67 167.51)">10</text><text class="cls-2" transform="translate(455.04 183.32)">2020 Rank</text><rect class="cls-6" x="260.81" y="110.76" width="35.5" height="40.38"/><rect class="cls-7" x="141.77" y="124.68" width="35.5" height="26.45"/><rect class="cls-8" x="221.13" y="13.3" width="35.5" height="137.84"/><rect class="cls-9" x="181.45" y="27.22" width="35.5" height="123.91"/><rect class="cls-10" x="300.49" y="41.15" width="35.5" height="109.99"/><rect class="cls-11" x="340.17" y="55.07" width="35.5" height="96.07"/><rect class="cls-12" x="379.85" y="68.99" width="35.5" height="82.14"/><rect class="cls-13" x="102.09" y="138.6" width="35.5" height="12.53"/><rect class="cls-14" x="419.53" y="82.91" width="35.5" height="68.22"/><rect class="cls-15" x="459.21" y="96.84" width="35.5" height="54.3"/></svg>